<svg width="335" height="42" viewBox="0 0 335 42" fill="none" xmlns="http://www.w3.org/2000/svg">
<path d="M32.5077 41L31.1737 4.75H23.6337L16.7317 31.894H16.1517L9.19172 4.75H1.70972L0.375719 41H2.23172L3.39172 9.216H3.97172L11.7437 39.55H16.6157L24.3877 9.216H24.9677L26.1277 41H32.5077ZM51.7592 34.272C50.6572 36.534 48.9752 38.448 47.1772 38.448C45.2052 38.448 43.7552 36.998 43.7552 34.388C43.7552 30.618 45.7852 27.37 50.5992 25.92L51.7592 25.572V34.272ZM57.2112 41V23.89C57.2112 16.35 54.3112 13.74 48.6272 13.74C44.5672 13.74 41.8992 15.19 38.8252 17.8L40.7972 21.164C42.3632 18.032 45.3792 15.538 47.8152 15.538C50.4252 15.538 51.7592 17.684 51.7592 22.208V23.948L50.8892 24.122C42.0732 25.862 37.9552 29.922 37.9552 34.678C37.9552 38.854 40.5652 41.696 44.6832 41.696C47.8732 41.696 50.0192 39.898 51.4692 37.462H51.7592V41H57.2112ZM54.8912 7.36V4.518H41.7832V7.36H54.8912ZM70.4143 41V0.573998L64.9623 2.024V41H70.4143ZM90.3881 34.272C89.2861 36.534 87.6041 38.448 85.8061 38.448C83.8341 38.448 82.3841 36.998 82.3841 34.388C82.3841 30.618 84.4141 27.37 89.2281 25.92L90.3881 25.572V34.272ZM95.8401 41V23.89C95.8401 16.35 92.9401 13.74 87.2561 13.74C83.1961 13.74 80.5281 15.19 77.4541 17.8L79.4261 21.164C80.9921 18.032 84.0081 15.538 86.4441 15.538C89.0541 15.538 90.3881 17.684 90.3881 22.208V23.948L89.5181 24.122C80.7021 25.862 76.5841 29.922 76.5841 34.678C76.5841 38.854 79.1941 41.696 83.3121 41.696C86.5021 41.696 88.6481 39.898 90.0981 37.462H90.3881V41H95.8401ZM138.623 41V21.628C138.623 17.046 136.361 13.74 131.837 13.74C128.879 13.74 125.979 15.422 123.717 18.67H123.427C122.615 15.654 120.527 13.74 117.047 13.74C114.205 13.74 111.653 15.19 109.333 18.148H109.043V13.74L103.591 15.19V41H109.043V21.106C110.435 18.844 112.581 17.278 114.669 17.278C116.757 17.278 118.381 18.438 118.381 22.498V41H123.833V21.106C125.225 18.844 127.371 17.278 129.459 17.278C131.547 17.278 133.171 18.438 133.171 22.498V41H138.623ZM158.357 34.272C157.255 36.534 155.573 38.448 153.775 38.448C151.803 38.448 150.353 36.998 150.353 34.388C150.353 30.618 152.383 27.37 157.197 25.92L158.357 25.572V34.272ZM163.809 41V23.89C163.809 16.35 160.909 13.74 155.225 13.74C151.165 13.74 148.497 15.19 145.423 17.8L147.395 21.164C148.961 18.032 151.977 15.538 154.413 15.538C157.023 15.538 158.357 17.684 158.357 22.208V23.948L157.487 24.122C148.671 25.862 144.553 29.922 144.553 34.678C144.553 38.854 147.163 41.696 151.281 41.696C154.471 41.696 156.617 39.898 158.067 37.462H158.357V41H163.809ZM208.664 41V4.75H202.284V21.512H190.684V4.75H184.304V41H190.684V23.368H202.284V41H208.664ZM228.591 34.272C227.489 36.534 225.807 38.448 224.009 38.448C222.037 38.448 220.587 36.998 220.587 34.388C220.587 30.618 222.617 27.37 227.431 25.92L228.591 25.572V34.272ZM234.043 41V23.89C234.043 16.35 231.143 13.74 225.459 13.74C221.399 13.74 218.731 15.19 215.657 17.8L217.629 21.164C219.195 18.032 222.211 15.538 224.647 15.538C227.257 15.538 228.591 17.684 228.591 22.208V23.948L227.721 24.122C218.905 25.862 214.787 29.922 214.787 34.678C214.787 38.854 217.397 41.696 221.515 41.696C224.705 41.696 226.851 39.898 228.301 37.462H228.591V41H234.043ZM264.37 41L271.446 14.436H269.474L263.848 35.548H263.5L258.048 14.436H252.48L254.394 21.222L250.508 35.548H250.16L244.592 14.436H238.85L246.274 41H250.972L255.148 25.34H255.496L259.73 41H264.37ZM288.46 34.272C287.358 36.534 285.676 38.448 283.878 38.448C281.906 38.448 280.456 36.998 280.456 34.388C280.456 30.618 282.486 27.37 287.3 25.92L288.46 25.572V34.272ZM293.912 41V23.89C293.912 16.35 291.012 13.74 285.328 13.74C281.268 13.74 278.6 15.19 275.526 17.8L277.498 21.164C279.064 18.032 282.08 15.538 284.516 15.538C287.126 15.538 288.46 17.684 288.46 22.208V23.948L287.59 24.122C278.774 25.862 274.656 29.922 274.656 34.678C274.656 38.854 277.266 41.696 281.384 41.696C284.574 41.696 286.72 39.898 288.17 37.462H288.46V41H293.912ZM307.232 41V13.74L301.78 15.19V41H307.232ZM304.564 9.216C306.478 9.216 307.87 7.592 307.87 5.504C307.87 3.474 306.42 1.792 304.506 1.792C302.592 1.792 301.142 3.474 301.142 5.504C301.142 7.592 302.65 9.216 304.564 9.216ZM321.284 2.024C317.572 4.808 313.396 9.912 313.396 14.784C313.396 17.974 315.194 19.946 317.804 19.946C320.298 19.946 321.69 17.916 321.69 15.828C319.486 15.422 317.978 13.682 317.978 11.71C317.978 9.042 319.312 6.432 322.386 3.242L321.284 2.024ZM333.796 41V13.74L328.344 15.19V41H333.796ZM331.128 9.216C333.042 9.216 334.434 7.592 334.434 5.504C334.434 3.474 332.984 1.792 331.07 1.792C329.156 1.792 327.706 3.474 327.706 5.504C327.706 7.592 329.214 9.216 331.128 9.216Z" fill="#6C6D6E"/>
</svg>
