<svg width="140" height="16" viewBox="0 0 140 16" fill="none" xmlns="http://www.w3.org/2000/svg">
<path d="M139.274 8.73124C139.216 8.78317 139.166 8.84263 139.108 8.89441C136.907 10.877 134.493 12.5279 131.739 13.6146C131.02 13.8984 130.245 14.0823 129.479 14.1844C128.563 14.3066 127.953 13.941 127.669 13.1381C127.53 12.7455 127.517 12.2688 127.579 11.8499C127.69 11.0908 128.102 10.4467 128.562 9.85039C128.885 9.43163 129.249 9.04409 129.6 8.64808C129.777 8.44811 129.807 8.21512 129.594 8.07822C129.465 7.99609 129.234 8.05798 129.054 8.0896C128.98 8.10262 128.921 8.20453 128.857 8.26854C127.448 9.68314 125.908 10.9303 124.208 11.9657C122.603 12.943 120.97 13.861 119.106 14.2501C117.897 14.5024 116.914 13.9928 116.673 12.9537C116.527 12.3212 116.653 11.7166 116.913 11.1339C117.322 10.2195 117.94 9.46042 118.626 8.75179C118.823 8.54806 118.973 8.32918 118.738 8.08034C118.503 7.83189 118.278 7.95851 118.079 8.1697C117.787 8.48043 117.505 8.8027 117.194 9.09383C115.356 10.8185 113.277 12.1911 111.051 13.3379C110.033 13.8623 108.975 14.2946 107.838 14.4762C107.538 14.5242 107.219 14.5388 106.92 14.4923C105.964 14.3434 105.481 13.5442 105.758 12.5971C105.986 11.8169 106.451 11.1709 107.006 10.6117C107.678 9.93551 108.402 9.31168 109.116 8.67938C109.329 8.49055 109.447 8.28627 109.273 8.04551C109.092 7.79534 108.848 7.86249 108.629 8.027C108.464 8.15032 108.303 8.27796 108.143 8.40206C108.07 8.37092 108.011 8.34621 107.952 8.32063C104.791 6.93545 101.821 7.13668 99.1051 9.42316C98.8886 9.60532 98.6936 9.82341 98.4544 9.96619C97.534 10.5158 96.5577 10.9241 95.5002 11.1301C94.5699 11.3112 93.6643 11.2904 92.7884 10.8983C92.2329 10.6496 91.7735 10.1043 92.3452 9.46615C92.7291 9.0375 92.7 8.74449 92.4159 8.5679C92.159 8.40818 91.8688 8.5588 91.596 9.00644C91.4018 9.32525 91.2435 9.66941 91.0262 9.9705C90.0001 11.3931 88.8975 12.7437 87.3939 13.6881C86.6782 14.1376 85.9073 14.3782 85.0549 14.2857C84.2184 14.1949 83.5637 13.724 83.5645 13.0885C83.5649 12.6673 83.6814 12.1933 83.8969 11.8365C84.3355 11.1103 84.8616 10.4358 85.3827 9.76465C85.5722 9.52051 85.5351 9.30329 85.3673 9.14929C85.2813 9.07045 84.9995 9.10215 84.8818 9.18899C84.5936 9.40166 84.3502 9.67639 84.0872 9.92445C82.5879 11.3381 80.979 12.601 79.1408 13.5343C78.2451 13.9891 77.3199 14.3827 76.281 14.2873C75.2912 14.1964 74.8607 13.59 75.213 12.651C75.4739 11.9556 75.8367 11.2855 76.2434 10.6642C76.6593 10.0289 77.1784 9.46176 77.6643 8.87496C77.8394 8.66346 77.9584 8.44215 77.7383 8.2272C77.5049 7.99923 77.2699 8.10498 77.0778 8.33428C76.9865 8.44325 76.8923 8.55072 76.791 8.64996C76.0919 9.33451 75.4419 10.0834 74.6797 10.6864C72.824 12.1541 70.8133 13.3787 68.5872 14.1855C67.8592 14.4493 67.0844 14.6193 66.3167 14.7226C65.0839 14.8886 64.259 14.0208 64.5141 12.8693C64.5935 12.5115 64.767 12.1581 64.9655 11.8474C65.7214 10.6638 66.7383 9.73295 67.8437 8.89425C68.065 8.72637 68.2469 8.52131 68.0394 8.24242C67.842 7.97726 67.6111 8.06614 67.3655 8.22351C67.2527 8.29584 67.0604 8.30941 66.9276 8.26956C66.3402 8.09313 65.7724 7.83778 65.1773 7.70127C62.779 7.15127 60.5698 7.59396 58.606 9.11705C57.578 9.91433 56.6031 10.7825 55.5657 11.5662C53.9572 12.7813 52.2629 13.8621 50.2909 14.3663C49.7213 14.5119 49.1036 14.5264 48.5117 14.5035C47.9236 14.4808 47.5952 14.0467 47.623 13.4478C47.6342 13.2065 47.7031 12.964 47.772 12.73C47.9072 12.2712 48.0932 11.8257 48.1999 11.3609C48.3969 10.503 47.7859 9.57559 46.9418 9.36495C46.1575 9.16922 45.4283 9.36511 44.7542 9.72856C43.852 10.2149 42.986 10.7701 42.1277 11.2819C42.4407 10.7304 42.7933 10.1452 43.1093 9.54028C43.3367 9.10497 43.6448 8.77572 44.0379 8.48318C45.9826 7.03587 47.915 5.56989 49.5711 3.77402C50.1413 3.15561 50.6884 2.51358 50.9679 1.69622C51.2618 0.837038 50.7264 0.212974 49.8529 0.421179C49.4605 0.51469 49.0721 0.681003 48.7202 0.882853C47.6167 1.51586 46.742 2.43333 46.0192 3.45764C44.9851 4.92315 44.0631 6.4697 43.0807 7.97326C42.9302 8.20366 42.7466 8.44388 42.5212 8.58689C40.5998 9.80591 38.693 11.0529 36.7261 12.1926C35.0033 13.1907 33.1901 14.0204 31.2377 14.4682C30.4366 14.652 29.6256 14.7812 28.8178 14.4555C28.4533 14.3086 28.2404 14.0567 28.1326 13.6775C27.9675 13.0971 28.127 12.547 28.2394 11.9885C28.3045 11.6648 28.4702 11.4534 28.7636 11.2821C31.2552 9.82694 33.6718 8.25858 35.84 6.32826C36.8761 5.40585 37.7604 4.37087 38.0944 2.96937C38.3764 1.78628 37.5718 0.96648 36.3904 1.20387C35.5954 1.36359 34.9034 1.74493 34.2427 2.20261C33.1163 2.98278 32.2248 4.00874 31.3618 5.05683C29.9279 6.79809 28.6584 8.6491 27.808 10.7674C27.7529 10.9046 27.6071 11.0333 27.4719 11.104C26.2657 11.7344 25.071 12.3925 23.8366 12.9614C22.1707 13.7291 20.4793 14.436 18.6317 14.6564C17.5495 14.7856 16.7667 14.1839 16.6666 13.0879C16.6394 12.79 16.7127 12.5985 16.9839 12.4164C19.7067 10.5887 22.2921 8.58548 24.5526 6.18116C25.3722 5.30936 26.0967 4.36765 26.3977 3.17036C26.699 1.97102 26.0646 1.17296 24.8541 1.25423C23.7841 1.32609 22.9168 1.8943 22.1137 2.55304C20.6959 3.71613 19.5448 5.12908 18.5046 6.63664C17.3763 8.27199 16.394 9.98133 15.9631 11.9612C15.9419 12.0587 15.8552 12.174 15.7679 12.2192C14.5502 12.8505 13.3519 13.5302 12.095 14.0696C11.4411 14.3503 10.6849 14.4747 9.96931 14.4987C8.89449 14.5345 8.27438 13.6199 8.62556 12.5933C8.77764 12.1487 8.99524 11.6816 9.31065 11.3487C10.1243 10.4898 11.0022 9.69248 11.8704 8.88837C12.0795 8.69484 12.2737 8.51425 12.0817 8.24069C11.8929 7.97169 11.6395 8.04732 11.411 8.22791C11.3605 8.26776 11.2945 8.2931 11.2556 8.34158C11.0992 8.537 10.9433 8.46647 10.7517 8.38637C7.88072 7.1868 5.12223 7.29946 2.56082 9.20036C1.28421 10.148 0.35461 11.3667 0.0483676 12.9899C-0.183877 14.2209 0.435931 15.1865 1.57056 15.2614C2.00206 15.2898 2.46624 15.1788 2.88102 15.0317C4.35666 14.5079 5.65609 13.6448 6.94619 12.7707C7.25752 12.5597 7.56407 12.3415 7.9272 12.0887C7.89467 12.2231 7.8825 12.2853 7.86454 12.3458C7.43419 13.7964 8.13617 15.0079 9.61397 15.2466C10.1189 15.3282 10.666 15.2749 11.1742 15.1776C12.5615 14.9119 13.8076 14.2674 15.0331 13.5841C15.3059 13.432 15.5796 13.2813 15.8652 13.1231C15.9012 13.2942 15.9305 13.4207 15.954 13.5482C16.1299 14.5021 16.8175 15.1916 17.7613 15.3881C18.4867 15.5391 19.1902 15.4163 19.8909 15.249C22.3685 14.6573 24.631 13.5315 26.8708 12.3504C27.0242 12.2695 27.1785 12.1903 27.2899 12.1324C27.2899 12.5472 27.2747 12.9473 27.293 13.3459C27.3314 14.1816 27.6888 14.8679 28.4729 15.1492C29.0372 15.3516 29.6785 15.4481 30.2765 15.4164C31.6712 15.3426 32.9798 14.8588 34.2557 14.3127C36.6113 13.3046 38.8146 12.0075 40.9646 10.6136C41.2661 10.4181 41.5641 10.2169 41.8637 10.0184C41.5311 10.7124 41.1582 11.3493 40.7417 11.9554C40.0486 12.9638 39.2848 13.9052 38.1457 14.442C37.9081 14.5539 37.8473 14.7707 37.9469 15C38.0573 15.2541 38.2778 15.2858 38.4946 15.1518C38.9957 14.8422 39.5071 14.5432 39.9766 14.1887C41.3738 13.1337 42.7332 12.0263 44.148 10.9965C44.7554 10.5544 45.4382 10.1905 46.2211 10.1301C47.1503 10.0584 47.6244 10.6555 47.3405 11.5473C47.1992 11.991 47.0135 12.4218 46.8936 12.8709C46.5899 14.0081 47.1161 15.0136 48.1845 15.2706C48.6107 15.3731 49.0779 15.3831 49.5163 15.3365C50.9428 15.185 52.2349 14.611 53.4587 13.8912C54.4315 13.3192 55.3661 12.6805 56.3117 12.0751C56.2538 12.3494 56.1782 12.6478 56.1291 12.9506C55.9383 14.1276 56.5561 15.0374 57.6606 15.1047C58.0918 15.131 58.5572 15.021 58.9683 14.8671C60.4562 14.3102 61.7917 13.4608 63.0922 12.5535C63.3654 12.3629 63.6369 12.1697 63.9817 11.9266C63.8983 12.1553 63.8471 12.2865 63.8023 12.4198C63.3778 13.6844 63.8897 14.892 65.0983 15.4076C65.7981 15.7061 66.5274 15.6451 67.2545 15.4899C69.0077 15.1159 70.5847 14.3149 72.1132 13.4092C72.9589 12.908 73.7724 12.351 74.635 11.7971C74.5513 12.0594 74.4708 12.288 74.4056 12.521C74.0467 13.803 74.5425 14.7359 75.8347 14.9879C76.416 15.1012 77.0662 15.0541 77.649 14.9195C79.3956 14.516 80.8517 13.5069 82.2855 12.4725C82.4822 12.3306 82.6751 12.1832 82.9226 11.999C82.8759 12.2224 82.8473 12.3605 82.8183 12.4986C82.5984 13.546 82.9948 14.3387 83.9614 14.7743C85.1099 15.2919 86.2373 15.1741 87.3341 14.6217C88.6838 13.9419 89.7145 12.8738 90.6784 11.7321C90.9404 11.4217 91.1832 11.0944 91.4072 10.81C93.3245 12.687 95.4262 12.0143 97.473 11.391C97.3314 11.9039 97.1408 12.4286 97.0463 12.9705C96.8445 14.1284 97.4637 14.988 98.6108 15.0914C99.0244 15.1286 99.4762 15.003 99.8775 14.8578C101.287 14.3479 102.545 13.5439 103.779 12.7006C104.249 12.3794 104.71 12.0453 105.245 11.6684C105.159 11.8968 105.101 12.0375 105.053 12.1819C104.574 13.6372 105.215 15.0034 106.634 15.3153C107.234 15.4473 107.92 15.3829 108.528 15.2387C110.332 14.8111 111.938 13.9094 113.488 12.9097C114.34 12.3596 115.165 11.7649 116.013 11.1829C115.955 11.4923 115.892 11.792 115.845 12.0941C115.58 13.7683 117.011 15.2299 118.676 15.0321C120.391 14.8281 121.942 14.1696 123.414 13.3102C124.622 12.6051 125.789 11.8277 126.961 11.0911C126.906 11.3097 126.821 11.5672 126.777 11.8316C126.474 13.669 127.657 15.1799 129.47 15.0271C130.275 14.9592 131.093 14.7565 131.853 14.4737C134.097 13.6398 136.099 12.3519 137.992 10.8931C138.633 10.3987 139.221 9.8311 139.827 9.29058C140.014 9.1238 140.074 8.91999 139.881 8.71366C139.678 8.49722 139.471 8.55284 139.274 8.73124ZM46.6701 3.91249C47.3667 2.99761 48.1233 2.12047 49.143 1.54818C49.4689 1.36532 49.8361 1.25815 50.1843 1.11632C50.2269 1.16284 50.2693 1.20944 50.3119 1.25596C50.1946 1.50519 50.1234 1.7949 49.9518 1.9966C49.2503 2.82071 48.5678 3.6718 47.7849 4.4115C46.7792 5.36176 45.6839 6.21458 44.6272 7.10938C44.5838 7.07133 44.5405 7.0332 44.4972 6.99515C45.2185 5.96527 45.9094 4.91154 46.6701 3.91249ZM29.7438 8.65224C30.8858 6.73792 32.2762 5.02333 33.896 3.508C34.6422 2.81004 35.4719 2.21673 36.4977 1.99589C37.1516 1.85508 37.4654 2.17209 37.3107 2.83059C37.1314 3.59367 36.7308 4.24786 36.2132 4.81261C34.5566 6.62016 32.5359 7.95757 30.5079 9.28156C30.0078 9.60806 29.4931 9.91174 28.985 10.2259C28.9615 10.2054 28.9379 10.1847 28.9143 10.1642C29.1898 9.65961 29.4496 9.14537 29.7438 8.65224ZM18.0591 8.83008C19.3361 6.58941 20.8553 4.53326 22.9063 2.95274C23.4119 2.563 24.0378 2.29565 24.6474 2.09152C25.4375 1.82691 25.8266 2.24489 25.5987 3.04641C25.364 3.87177 24.8954 4.56895 24.3408 5.20557C22.4703 7.35241 20.2622 9.10418 17.978 10.7653C17.6465 11.0063 17.3032 11.2309 16.9653 11.4632C16.9253 11.4323 16.8852 11.4014 16.8452 11.3706C17.2465 10.5218 17.596 9.64266 18.0591 8.83008ZM8.23992 10.8247C6.6075 12.0621 4.95242 13.2683 3.07025 14.1003C2.7331 14.2494 2.37567 14.3751 2.01501 14.4409C1.15857 14.5972 0.69184 14.1129 0.813628 13.2338C0.927245 12.414 1.26902 11.6877 1.78732 11.0642C3.68389 8.78278 6.09522 8.01076 8.95392 8.62996C9.41255 8.72927 9.85746 8.89394 10.429 9.06425C9.63902 9.70165 8.95423 10.2831 8.23992 10.8247ZM64.0992 10.8185C62.4254 12.087 60.713 13.2946 58.7614 14.0994C58.5617 14.1817 58.3505 14.2484 58.1385 14.2845C57.2234 14.4403 56.7536 13.9429 56.9083 13.0032C57.038 12.2145 57.3743 11.5181 57.8692 10.91C59.2797 9.17699 61.0887 8.26674 63.3215 8.26956C64.4262 8.27097 65.6659 8.54696 66.4549 8.97396C65.6563 9.60061 64.8867 10.2217 64.0992 10.8185ZM103.314 12.0543C102.142 12.8967 100.909 13.6408 99.5524 14.1489C99.374 14.2157 99.1852 14.2637 98.9971 14.293C98.1562 14.4237 97.7049 13.9612 97.8222 13.0947C97.9817 11.9151 98.6078 10.9954 99.4336 10.2017C101.701 8.02205 104.771 7.78937 107.439 8.98431C106.018 10.0447 104.681 11.0712 103.314 12.0543Z" fill="#4285C3"/>
<path d="M121.93 4.19325C122.358 4.19772 122.9 3.81285 123.032 3.41048C123.177 2.97164 122.921 2.63799 122.5 2.74868C122.024 2.87397 121.695 3.19373 121.54 3.66921C121.446 3.95429 121.635 4.19019 121.93 4.19325Z" fill="#4285C3"/>
<path d="M132.592 4.19274C133.091 4.18497 133.636 3.73655 133.701 3.27927C133.756 2.88891 133.548 2.67819 133.168 2.73986C132.768 2.80481 132.272 3.28108 132.185 3.68533C132.12 3.98375 132.291 4.19744 132.592 4.19274Z" fill="#4285C3"/>
</svg>
