<svg width="24" height="24" viewBox="0 0 24 24" fill="none" xmlns="http://www.w3.org/2000/svg">
<path d="M12.2472 8.00781C11.123 8.00781 10.0449 8.45439 9.25002 9.24929C8.45512 10.0442 8.00854 11.1223 8.00854 12.2465C8.00854 13.3706 8.45512 14.4488 9.25002 15.2437C10.0449 16.0386 11.123 16.4851 12.2472 16.4851C13.3714 16.4851 14.4495 16.0386 15.2444 15.2437C16.0393 14.4488 16.4859 13.3706 16.4859 12.2465C16.4859 11.1223 16.0393 10.0442 15.2444 9.24929C14.4495 8.45439 13.3714 8.00781 12.2472 8.00781ZM12.2472 14.9992C11.5169 14.9992 10.8165 14.7091 10.3001 14.1927C9.78366 13.6763 9.49355 12.9759 9.49355 12.2456C9.49355 11.5152 9.78366 10.8148 10.3001 10.2984C10.8165 9.78201 11.5169 9.4919 12.2472 9.4919C12.9775 9.4919 13.6779 9.78201 14.1943 10.2984C14.7108 10.8148 15.0009 11.5152 15.0009 12.2456C15.0009 12.9759 14.7108 13.6763 14.1943 14.1927C13.6779 14.7091 12.9775 14.9992 12.2472 14.9992Z" fill="white" fill-opacity="0.7"/>
<path d="M16.6537 8.8401C17.1994 8.8401 17.6419 8.39768 17.6419 7.85194C17.6419 7.30619 17.1994 6.86377 16.6537 6.86377C16.1079 6.86377 15.6655 7.30619 15.6655 7.85194C15.6655 8.39768 16.1079 8.8401 16.6537 8.8401Z" fill="white" fill-opacity="0.7"/>
<path d="M20.0701 6.84717C19.8579 6.29917 19.5336 5.80151 19.118 5.38605C18.7024 4.9706 18.2046 4.6465 17.6565 4.4345C17.0151 4.19374 16.3376 4.06356 15.6527 4.0495C14.7699 4.011 14.4903 4 12.2518 4C10.0133 4 9.72642 4 8.851 4.0495C8.16661 4.06284 7.48953 4.19305 6.849 4.4345C6.30078 4.64625 5.80287 4.97026 5.38722 5.38575C4.97158 5.80124 4.64738 6.29902 4.43542 6.84717C4.19461 7.48848 4.06473 8.1661 4.05133 8.851C4.01192 9.73283 4 10.0124 4 12.2518C4 14.4903 4 14.7754 4.05133 15.6527C4.06508 16.3383 4.19433 17.0148 4.43542 17.6574C4.64797 18.2054 4.97249 18.7029 5.38823 19.1184C5.80398 19.5338 6.30181 19.8579 6.84992 20.0701C7.48923 20.3205 8.16659 20.46 8.85283 20.4826C9.73558 20.5211 10.0152 20.533 12.2537 20.533C14.4922 20.533 14.7791 20.533 15.6545 20.4826C16.3393 20.4687 17.0169 20.3388 17.6583 20.0985C18.2063 19.886 18.7039 19.5616 19.1195 19.1461C19.535 18.7305 19.8594 18.2329 20.0719 17.6849C20.313 17.0432 20.4423 16.3667 20.456 15.6811C20.4954 14.7992 20.5073 14.5197 20.5073 12.2802C20.5073 10.0408 20.5073 9.75667 20.456 8.87942C20.4453 8.18483 20.3148 7.49731 20.0701 6.84717ZM18.9536 15.5848C18.9477 16.1131 18.8512 16.6365 18.6685 17.1322C18.5308 17.4886 18.3201 17.8123 18.0498 18.0825C17.7795 18.3526 17.4557 18.5631 17.0992 18.7006C16.609 18.8825 16.0912 18.9789 15.5683 18.9857C14.6975 19.026 14.4518 19.0361 12.2188 19.0361C9.984 19.0361 9.75575 19.0361 8.86842 18.9857C8.34585 18.9793 7.8283 18.8828 7.3385 18.7006C6.98071 18.564 6.65559 18.3538 6.38415 18.0836C6.11271 17.8135 5.90102 17.4893 5.76275 17.1322C5.58258 16.6418 5.4862 16.1246 5.47767 15.6022C5.43825 14.7314 5.42908 14.4857 5.42908 12.2527C5.42908 10.0188 5.42908 9.79058 5.47767 8.90233C5.48359 8.37435 5.58002 7.8513 5.76275 7.35592C6.04233 6.63267 6.61525 6.06342 7.3385 5.78658C7.82854 5.60521 8.34594 5.5088 8.86842 5.5015C9.74017 5.46208 9.98492 5.45108 12.2188 5.45108C14.4528 5.45108 14.6819 5.45108 15.5683 5.5015C16.0912 5.50779 16.6091 5.60423 17.0992 5.78658C17.4557 5.92433 17.7795 6.1351 18.0497 6.40536C18.32 6.67562 18.5308 6.9994 18.6685 7.35592C18.8487 7.84629 18.945 8.36348 18.9536 8.88583C18.993 9.75758 19.0031 10.0023 19.0031 12.2362C19.0031 14.4692 19.0031 14.7094 18.9637 15.5857H18.9536V15.5848Z" fill="white" fill-opacity="0.7"/>
</svg>
