<svg width="24" height="24" viewBox="0 0 24 24" fill="none" xmlns="http://www.w3.org/2000/svg">
<path d="M17.5221 10.3178C17.5856 10.3155 17.6489 10.3267 17.7083 10.3506C17.7676 10.3746 17.8217 10.4108 17.8675 10.4572C17.9132 10.5036 17.9495 10.5591 17.9744 10.6206C17.9992 10.682 18.012 10.7481 18.012 10.8148C18.012 10.8816 17.9992 10.9476 17.9744 11.0091C17.9495 11.0705 17.9132 11.1261 17.8675 11.1724C17.8217 11.2188 17.7676 11.255 17.7083 11.279C17.6489 11.3029 17.5856 11.3141 17.5221 11.3118H16.2064V12.1976H17.5221C17.586 12.1944 17.6499 12.2048 17.7098 12.2282C17.7698 12.2516 17.8246 12.2876 17.871 12.3339C17.9173 12.3802 17.9542 12.436 17.9794 12.4977C18.0046 12.5595 18.0176 12.626 18.0176 12.6931C18.0176 12.7603 18.0046 12.8268 17.9794 12.8886C17.9542 12.9503 17.9173 13.006 17.871 13.0524C17.8246 13.0987 17.7698 13.1347 17.7098 13.1581C17.6499 13.1815 17.586 13.1919 17.5221 13.1886H15.735C15.6101 13.1882 15.4904 13.1358 15.4022 13.0429C15.314 12.9501 15.2643 12.8243 15.2642 12.6931V8.93707C15.2642 8.66363 15.4751 8.43921 15.735 8.43921H17.5254C17.6469 8.4458 17.7613 8.5012 17.8449 8.59392C17.9285 8.68665 17.975 8.8096 17.9746 8.93729C17.9743 9.06499 17.9271 9.18765 17.843 9.27985C17.7588 9.37205 17.6441 9.42673 17.5226 9.43256H16.2069V10.3184L17.5221 10.3178ZM14.6342 12.6925C14.6332 12.8241 14.5827 12.9499 14.4938 13.0425C14.4049 13.1352 14.2847 13.1873 14.1594 13.1875C14.0853 13.1882 14.0119 13.1708 13.9452 13.1367C13.8786 13.1026 13.8204 13.0526 13.7753 12.9908L11.9443 10.3763V12.692C11.9443 12.8234 11.8946 12.9494 11.8061 13.0423C11.7176 13.1352 11.5975 13.1875 11.4724 13.1875C11.3472 13.1875 11.2272 13.1352 11.1387 13.0423C11.0502 12.9494 11.0004 12.8234 11.0004 12.692V8.93589C11.0004 8.72387 11.1326 8.5337 11.3228 8.46579C11.3697 8.44838 11.4192 8.43978 11.469 8.44039C11.6152 8.44039 11.7502 8.52366 11.8408 8.6406L13.6864 11.261V8.93589C13.6864 8.66245 13.8973 8.43803 14.1583 8.43803C14.4193 8.43803 14.6331 8.66245 14.6331 8.93589L14.6342 12.6925ZM10.3277 12.6925C10.3271 12.8243 10.2768 12.9504 10.1878 13.0433C10.0988 13.1361 9.97841 13.1882 9.85294 13.188C9.7284 13.187 9.60931 13.1343 9.52157 13.0415C9.43382 12.9487 9.38452 12.8233 9.38438 12.6925V8.93648C9.38438 8.66304 9.59531 8.43862 9.85631 8.43862C10.1168 8.43862 10.3282 8.66304 10.3282 8.93648L10.3277 12.6925ZM8.47875 13.188H6.68831C6.56298 13.1877 6.44282 13.1355 6.35393 13.0428C6.26504 12.95 6.2146 12.8241 6.21356 12.6925V8.93648C6.21356 8.66304 6.42731 8.43862 6.68831 8.43862C6.94931 8.43862 7.16025 8.66304 7.16025 8.93648V12.1971H8.47875C8.60392 12.1971 8.72395 12.2493 8.81246 12.3422C8.90097 12.4351 8.95069 12.5611 8.95069 12.6925C8.95069 12.824 8.90097 12.95 8.81246 13.0429C8.72395 13.1358 8.60392 13.188 8.47875 13.188ZM21 10.671C21 6.44188 16.9596 3 12 3C7.04044 3 3 6.44188 3 10.671C3 14.4607 6.20231 17.6351 10.5262 18.2381C10.8193 18.3024 11.2176 18.4412 11.3205 18.7028C11.4111 18.9391 11.379 19.3052 11.3497 19.555L11.2266 20.3576C11.1911 20.5945 11.0449 21.2902 12.0118 20.8655C12.9816 20.4409 17.2003 17.6546 19.0898 15.3714C20.3818 13.8861 21 12.3601 21 10.671Z" fill="white" fill-opacity="0.7"/>
</svg>
