<svg width="24" height="24" viewBox="0 0 24 24" fill="none" xmlns="http://www.w3.org/2000/svg">
<path fill-rule="evenodd" clip-rule="evenodd" d="M6 17.5009C6 17.8987 6.15804 18.2802 6.43934 18.5615C6.72064 18.8428 7.10218 19.0009 7.5 19.0009H15.5C15.8978 19.0009 16.2794 18.8428 16.5607 18.5615C16.842 18.2802 17 17.8987 17 17.5009V13.5009C17 13.3682 16.9473 13.2411 16.8536 13.1473C16.7598 13.0535 16.6326 13.0009 16.5 13.0009C16.3674 13.0009 16.2402 13.0535 16.1464 13.1473C16.0527 13.2411 16 13.3682 16 13.5009V17.5009C16 17.6335 15.9473 17.7606 15.8536 17.8544C15.7598 17.9482 15.6326 18.0009 15.5 18.0009H7.5C7.36739 18.0009 7.24021 17.9482 7.14645 17.8544C7.05268 17.7606 7 17.6335 7 17.5009V9.50085C7 9.36825 7.05268 9.24107 7.14645 9.1473C7.24021 9.05353 7.36739 9.00085 7.5 9.00085H11.5C11.6326 9.00085 11.7598 8.94818 11.8536 8.85441C11.9473 8.76064 12 8.63346 12 8.50085C12 8.36825 11.9473 8.24107 11.8536 8.1473C11.7598 8.05353 11.6326 8.00085 11.5 8.00085H7.5C7.10218 8.00085 6.72064 8.15889 6.43934 8.44019C6.15804 8.7215 6 9.10303 6 9.50085V17.5009ZM13 6.50085C13 6.36825 13.0527 6.24107 13.1464 6.1473C13.2402 6.05353 13.3674 6.00085 13.5 6.00085H18.5C18.6326 6.00085 18.7598 6.05353 18.8536 6.1473C18.9473 6.24107 19 6.36825 19 6.50085V11.5009C19 11.6335 18.9473 11.7606 18.8536 11.8544C18.7598 11.9482 18.6326 12.0009 18.5 12.0009C18.3674 12.0009 18.2402 11.9482 18.1464 11.8544C18.0527 11.7606 18 11.6335 18 11.5009V7.00085H13.5C13.3674 7.00085 13.2402 6.94818 13.1464 6.85441C13.0527 6.76064 13 6.63346 13 6.50085Z" fill="white" fill-opacity="0.7"/>
<path fill-rule="evenodd" clip-rule="evenodd" d="M18.854 6.14689C18.9006 6.19334 18.9375 6.24852 18.9627 6.30926C18.9879 6.37001 19.0009 6.43513 19.0009 6.50089C19.0009 6.56666 18.9879 6.63178 18.9627 6.69253C18.9375 6.75327 18.9006 6.80845 18.854 6.85489L10.854 14.8549C10.8075 14.9014 10.7523 14.9383 10.6916 14.9634C10.6309 14.9886 10.5658 15.0015 10.5 15.0015C10.4343 15.0015 10.3692 14.9886 10.3084 14.9634C10.2477 14.9383 10.1925 14.9014 10.146 14.8549C10.0995 14.8084 10.0627 14.7532 10.0375 14.6925C10.0123 14.6317 9.99939 14.5666 9.99939 14.5009C9.99939 14.4352 10.0123 14.37 10.0375 14.3093C10.0627 14.2486 10.0995 14.1934 10.146 14.1469L18.146 6.14689C18.1925 6.10033 18.2476 6.06339 18.3084 6.03818C18.3691 6.01297 18.4343 6 18.5 6C18.5658 6 18.6309 6.01297 18.6917 6.03818C18.7524 6.06339 18.8076 6.10033 18.854 6.14689Z" fill="white" fill-opacity="0.7"/>
</svg>
